<?xml version="1.0" standalone="no"?>
<!DOCTYPE svg PUBLIC "-//W3C//DTD SVG 20010904//EN"
 "http://www.w3.org/TR/2001/REC-SVG-20010904/DTD/svg10.dtd">
<svg version="1.0" xmlns="http://www.w3.org/2000/svg"
 width="100.000000pt" height="100.000000pt" viewBox="0 0 100.000000 100.000000"
 preserveAspectRatio="xMidYMid meet">
<metadata>
Created by potrace 1.16, written by Peter Selinger 2001-2019
</metadata>
<g transform="translate(0.000000,100.000000) scale(0.100000,-0.100000)"
fill="#000000" stroke="none">
<path d="M465 740 c-3 -6 1 -13 9 -16 22 -8 20 -34 -2 -34 -9 0 -34 -9 -54
-20 -38 -20 -53 -15 -42 14 10 25 -23 20 -51 -9 -30 -29 -32 -49 -5 -42 30 8
32 -5 8 -64 -28 -68 -26 -66 -42 -44 -18 25 -36 10 -36 -30 0 -40 18 -55 36
-30 16 22 14 24 42 -44 24 -59 22 -72 -8 -64 -27 7 -25 -13 5 -42 28 -29 61
-34 51 -9 -11 29 4 34 42 14 20 -11 45 -20 54 -20 22 0 24 -26 2 -34 -26 -10
-5 -26 36 -26 41 0 62 16 36 26 -22 8 -20 34 2 34 9 0 34 9 54 20 38 20 53 15
42 -14 -10 -25 23 -20 51 9 30 29 32 49 5 42 -30 -8 -32 5 -8 64 28 68 26 66
42 44 18 -25 36 -10 36 30 0 40 -18 55 -36 30 -16 -22 -14 -24 -42 44 -24 59
-22 72 8 64 27 -7 25 13 -5 42 -28 29 -61 34 -51 9 11 -29 -4 -34 -42 -14 -20
11 -45 20 -54 20 -22 0 -24 26 -2 34 26 10 5 26 -36 26 -21 0 -42 -5 -45 -10z
m-108 -64 c-3 -8 5 -24 19 -37 21 -19 24 -20 24 -5 0 22 57 46 110 46 53 0
110 -24 110 -46 0 -15 3 -14 24 5 15 14 22 29 19 40 -5 13 -3 13 15 -3 22 -19
31 -43 11 -31 -5 4 -19 -1 -30 -11 -20 -18 -27 -40 -9 -29 14 9 50 -72 50
-114 l0 -33 -18 23 c-22 27 -47 21 -64 -15 -14 -32 5 -60 38 -53 20 3 22 1 13
-15 -5 -10 -14 -16 -20 -13 -17 11 -9 -12 10 -29 11 -10 25 -15 30 -11 20 12
11 -12 -11 -31 -18 -16 -20 -16 -15 -3 3 11 -4 26 -19 40 -21 19 -24 20 -24 5
0 -22 -57 -46 -110 -46 -53 0 -110 24 -110 46 0 15 -3 14 -24 -5 -15 -14 -22
-29 -19 -40 5 -13 3 -13 -15 3 -22 19 -31 43 -11 31 5 -4 19 1 30 11 21 19 25
35 7 31 -19 -4 -43 55 -43 108 0 53 24 112 43 108 18 -4 14 12 -7 31 -11 10
-25 15 -30 11 -17 -10 -13 6 6 27 19 22 27 23 20 4z"/>
</g>
</svg>
